<svg xmlns="http://www.w3.org/2000/svg" xmlns:xlink="http://www.w3.org/1999/xlink" width="100.0" height="100.0" viewBox="8.178600000000002e-05 -2.2140000000000003e-06 3.6280000543009917e-06 4.428000000000001e-06" preserveAspectRatio="xMinYMin meet"><g transform="matrix(1,0,0,-1,0,0.0)"><path fill-rule="evenodd" fill="#66cc99" stroke="#555555" stroke-width="8.856000000000001e-08" opacity="0.6" d="M 8.350000000000001e-05,-1.800000003377129e-06 L 8.36999998390182e-05,-1.8000000038429395e-06 L 8.370000000000002e-05,-1.8500000000000003e-06 L 8.379999998477591e-05,-1.850000123463265e-06 L 8.38e-05,-2.0500000000000003e-06 L 8.525000000743066e-05,-2.0500000000000003e-06 L 8.525000005430102e-05,2.0500000000000003e-06 L 8.38e-05,2.0500000000000003e-06 L 8.379999998477591e-05,1.850000123463265e-06 L 8.370000000000002e-05,1.8500000000000003e-06 L 8.36999998196036e-05,1.8000000009630533e-06 L 8.350099999999943e-05,1.8000000008469033e-06 L 8.205e-05,1.7999999999994159e-06 L 8.204999997638425e-05,1.600000105720611e-06 L 8.195000000000001e-05,1.6e-06 L 8.195000000000001e-05,-1.5999999950906156e-06 L 8.204999997638425e-05,-1.6000001057206086e-06 L 8.205e-05,-1.8e-06 L 8.350000000000001e-05,-1.8e-06 L 8.350000000000001e-05,-1.800000003377129e-06 z" /></g></svg>